<?xml version="1.0" encoding="UTF-8" standalone="no"?>
<!DOCTYPE svg PUBLIC "-//W3C//DTD SVG 1.1//EN" "http://www.w3.org/Graphics/SVG/1.1/DTD/svg11.dtd">
<svg width="100%" height="100%" viewBox="0 0 1920 300" version="1.1" xmlns="http://www.w3.org/2000/svg" xmlns:xlink="http://www.w3.org/1999/xlink" xml:space="preserve" xmlns:serif="http://www.serif.com/" style="fill-rule:evenodd;clip-rule:evenodd;stroke-linejoin:round;stroke-miterlimit:2;">
    <g transform="matrix(1.5,0,0,1,2.29927,0)">
        <g transform="matrix(0.431002,0,0,0.646503,0.00050257,-0.000412195)">
            <path d="M378.488,52.129C377.766,55.047 376.832,57.906 375.695,60.688C374.023,106.195 362.848,150.844 342.898,191.777L344.016,192.016C371.457,198.016 382.098,185.297 408.016,192.016C419.578,195.332 430.426,200.758 440.016,208.016C451.129,217.184 459.344,229.383 463.656,243.129C463.832,239.441 464.016,235.754 464.016,232.016C464.078,162.227 432.652,96.137 378.488,52.129Z" style="fill:rgb(0,164,104);fill-rule:nonzero;"/>
        </g>
        <g transform="matrix(0.431002,0,0,0.646503,0.00050257,-0.000412195)">
            <path d="M375.961,50.145C374.91,229.652 229.652,374.91 50.145,375.961C105.555,446.023 196.273,478.039 283.383,458.281C370.496,438.52 438.52,370.496 458.281,283.383C478.039,196.273 446.023,105.555 375.961,50.145Z" style="fill:rgb(131,216,244);fill-rule:nonzero;"/>
        </g>
        <g transform="matrix(0.431002,0,0,0.646503,0.00050257,-0.000412195)">
            <path d="M375.961,50.145C283.66,-22.988 151.199,-15.34 67.93,67.93C-15.34,151.199 -22.988,283.66 50.145,375.961C229.652,374.91 374.91,229.652 375.961,50.145Z" style="fill:rgb(145,220,245);fill-rule:nonzero;"/>
        </g>
        <g transform="matrix(0.431002,0,0,0.646503,0.00050257,-0.000412195)">
            <path d="M344.016,96.016C326.336,104.016 316.578,94.578 304.016,104.016C288.496,115.695 282.258,145.938 296.016,168.016C305.754,183.57 323.215,187.473 342.93,191.777C362.883,150.844 374.055,106.195 375.73,60.688C369.914,75.996 358.609,88.59 344.016,96.016Z" style="fill:rgb(0,187,119);fill-rule:nonzero;"/>
        </g>
        <g transform="matrix(0.431002,0,0,0.646503,0.00050257,-0.000412195)">
            <path d="M224.016,328.016C239.855,345.535 244.016,375.137 232.016,392.016C222.258,405.777 208.898,401.055 200.016,416.016C193.297,428.504 193.297,443.531 200.016,456.016C201.25,458.273 202.723,460.387 204.41,462.328C213.57,463.434 222.789,463.996 232.016,464.016C316.617,464.039 394.516,417.992 435.289,343.863C420.738,334.129 398.008,321.25 376.016,320.016C353.477,317.813 330.867,323.465 312.016,336.016C288.418,353.297 283.777,377.777 272.016,376.016C263.695,374.816 259.137,361.375 256.016,352.016C248.871,330.703 252.746,316.281 252.68,304.328C242.91,312.145 232.703,319.395 222.105,326.039C222.93,326.848 223.609,327.563 224.016,328.016Z" style="fill:rgb(0,164,104);fill-rule:nonzero;"/>
        </g>
        <g transform="matrix(0.431002,0,0,0.646503,0.00050257,-0.000412195)">
            <path d="M248.016,288.016C239.777,276.496 224.418,274.336 208.016,272.016C173.617,267.215 160.098,282.016 144.016,272.016C130.91,263.289 124.543,247.379 128.016,232.016C134.738,211.938 164.098,218.738 200.016,192.016C211.617,183.457 239.215,162.898 240.016,136.016C240.816,109.695 215.137,102.176 208.016,72.016C204.922,59.023 210.695,29.145 225.328,0.258C139.207,2.691 61.535,52.664 23.617,130.023L23.617,130.098C18.484,158.52 18.621,187.645 24.016,216.016C28.898,248.258 33.375,277.535 56.016,304.016C65.938,315.695 81.215,333.457 104.016,336.016C129.297,338.816 162.656,322.656 168.016,320.016C175.184,315.309 183.457,312.551 192.016,312.016C203.453,312.746 214.195,317.75 222.105,326.039C232.703,319.395 242.91,312.145 252.68,304.328C252.949,298.527 251.313,292.797 248.016,288.016Z" style="fill:rgb(0,187,119);fill-rule:nonzero;"/>
        </g>
        <g transform="matrix(296.297,0,0,417.015,-16.5927,296.664)">
            <path d="M0.395,-0.711C0.473,-0.711 0.534,-0.691 0.588,-0.652C0.643,-0.612 0.682,-0.558 0.704,-0.491L0.657,-0.491C0.637,-0.544 0.604,-0.587 0.557,-0.62C0.511,-0.653 0.46,-0.669 0.395,-0.669C0.34,-0.669 0.291,-0.656 0.247,-0.63C0.202,-0.605 0.167,-0.568 0.141,-0.52C0.116,-0.472 0.103,-0.416 0.103,-0.352C0.103,-0.287 0.116,-0.23 0.141,-0.182C0.167,-0.134 0.203,-0.097 0.248,-0.071C0.293,-0.046 0.343,-0.033 0.398,-0.033C0.451,-0.033 0.499,-0.045 0.543,-0.069C0.586,-0.093 0.621,-0.127 0.648,-0.172C0.674,-0.217 0.688,-0.269 0.691,-0.33L0.379,-0.33L0.379,-0.365L0.731,-0.365L0.731,-0.331C0.729,-0.266 0.714,-0.208 0.685,-0.157C0.656,-0.105 0.617,-0.065 0.567,-0.035C0.516,-0.007 0.459,0.008 0.395,0.008C0.33,0.008 0.271,-0.007 0.22,-0.038C0.168,-0.069 0.128,-0.111 0.099,-0.166C0.07,-0.221 0.056,-0.283 0.056,-0.352C0.056,-0.421 0.07,-0.483 0.099,-0.538C0.128,-0.593 0.168,-0.635 0.22,-0.666C0.271,-0.696 0.33,-0.711 0.395,-0.711Z" style="fill-rule:nonzero;"/>
        </g>
        <g transform="matrix(0.431002,0,0,0.646503,0.00050257,-0.000412195)">
            <path d="M168.016,64.016C168.016,99.375 104.016,184.016 104.016,184.016C104.016,184.016 64.098,131.215 47.297,91.617C43.16,82.953 40.691,73.59 40.016,64.016C40.016,28.672 68.672,0.016 104.016,0.016C139.363,0.016 168.016,28.672 168.016,64.016Z" style="fill:rgb(255,80,35);fill-rule:nonzero;"/>
        </g>
        <g transform="matrix(0.431002,0,0,0.646503,0.00050257,-0.000412195)">
            <path d="M128.016,56.016C128.016,69.27 117.27,80.016 104.016,80.016C90.762,80.016 80.016,69.27 80.016,56.016C80.016,42.762 90.762,32.016 104.016,32.016C117.27,32.016 128.016,42.762 128.016,56.016Z" style="fill:rgb(241,242,242);fill-rule:nonzero;"/>
        </g>
        <g transform="matrix(0.431002,0,0,0.646503,0.00050257,-0.000412195)">
            <path d="M408.016,280.016C406.258,295.02 401.379,309.488 393.695,322.496C379.016,349.492 362.414,375.398 344.016,400.016C344.016,400.016 323.055,372.258 305.055,341.855C298.422,330.828 292.488,319.391 287.297,307.617C283.16,298.953 280.691,289.59 280.016,280.016C280.016,244.672 308.672,216.016 344.016,216.016C379.363,216.016 408.016,244.672 408.016,280.016Z" style="fill:rgb(255,205,0);fill-rule:nonzero;"/>
        </g>
        <g transform="matrix(0.431002,0,0,0.646503,0.00050257,-0.000412195)">
            <path d="M368.016,272.016C368.016,285.27 357.27,296.016 344.016,296.016C330.762,296.016 320.016,285.27 320.016,272.016C320.016,258.762 330.762,248.016 344.016,248.016C357.27,248.016 368.016,258.762 368.016,272.016Z" style="fill:rgb(241,242,242);fill-rule:nonzero;"/>
        </g>
        <g transform="matrix(0.666667,0,0,1,209.467,228.275)">
            <g transform="matrix(288,0,0,288,0,0)">
                <path d="M0.317,-0.031C0.372,-0.031 0.418,-0.045 0.455,-0.073C0.492,-0.1 0.515,-0.138 0.523,-0.186L0.57,-0.186C0.56,-0.128 0.533,-0.081 0.489,-0.046C0.444,-0.011 0.388,0.007 0.319,0.007C0.268,0.007 0.222,-0.004 0.183,-0.027C0.143,-0.049 0.112,-0.081 0.089,-0.123C0.066,-0.165 0.055,-0.215 0.055,-0.272C0.055,-0.329 0.066,-0.378 0.089,-0.42C0.112,-0.462 0.143,-0.494 0.183,-0.517C0.222,-0.539 0.268,-0.55 0.319,-0.55C0.372,-0.55 0.417,-0.539 0.456,-0.517C0.494,-0.494 0.523,-0.465 0.543,-0.429C0.562,-0.392 0.572,-0.353 0.572,-0.312C0.572,-0.295 0.57,-0.278 0.567,-0.259L0.1,-0.259C0.101,-0.208 0.111,-0.166 0.132,-0.132C0.152,-0.097 0.178,-0.072 0.211,-0.056C0.243,-0.039 0.278,-0.031 0.317,-0.031ZM0.319,-0.513C0.28,-0.513 0.244,-0.505 0.211,-0.488C0.178,-0.471 0.152,-0.446 0.132,-0.412C0.111,-0.378 0.101,-0.336 0.1,-0.286L0.528,-0.286C0.531,-0.336 0.522,-0.378 0.503,-0.412C0.484,-0.447 0.458,-0.472 0.425,-0.489C0.392,-0.505 0.357,-0.513 0.319,-0.513Z" style="fill-rule:nonzero;"/>
            </g>
            <g transform="matrix(288,0,0,288,180.576,0)">
                <path d="M0.323,-0.55C0.374,-0.55 0.42,-0.539 0.461,-0.517C0.502,-0.494 0.534,-0.462 0.557,-0.42C0.58,-0.378 0.591,-0.329 0.591,-0.272C0.591,-0.215 0.58,-0.165 0.557,-0.123C0.534,-0.081 0.502,-0.049 0.461,-0.027C0.42,-0.004 0.374,0.007 0.323,0.007C0.272,0.007 0.227,-0.004 0.186,-0.027C0.145,-0.049 0.113,-0.081 0.09,-0.124C0.067,-0.166 0.055,-0.215 0.055,-0.272C0.055,-0.329 0.067,-0.378 0.09,-0.42C0.113,-0.462 0.145,-0.494 0.186,-0.517C0.227,-0.539 0.272,-0.55 0.323,-0.55ZM0.323,-0.51C0.284,-0.51 0.247,-0.501 0.214,-0.484C0.18,-0.467 0.153,-0.44 0.132,-0.405C0.111,-0.369 0.101,-0.325 0.101,-0.272C0.101,-0.219 0.111,-0.175 0.132,-0.139C0.153,-0.103 0.18,-0.076 0.214,-0.059C0.247,-0.042 0.284,-0.033 0.323,-0.033C0.362,-0.033 0.399,-0.042 0.433,-0.059C0.466,-0.076 0.493,-0.103 0.514,-0.139C0.535,-0.175 0.545,-0.219 0.545,-0.272C0.545,-0.325 0.535,-0.369 0.515,-0.405C0.494,-0.44 0.467,-0.467 0.434,-0.484C0.4,-0.501 0.363,-0.51 0.323,-0.51Z" style="fill-rule:nonzero;"/>
            </g>
        </g>
    </g>
    <g transform="matrix(1,0,0,1,2.29927,0)">
        <g transform="matrix(1,0,0,1,15.7636,89.7013)">
            <g>
                <g transform="matrix(288,0,0,288,805.813,137.819)">
                    <path d="M0.32,-0.561C0.374,-0.561 0.423,-0.55 0.466,-0.527C0.508,-0.504 0.542,-0.471 0.567,-0.429C0.592,-0.386 0.604,-0.335 0.604,-0.277C0.604,-0.219 0.592,-0.169 0.567,-0.126C0.542,-0.083 0.508,-0.051 0.466,-0.028C0.423,-0.005 0.374,0.007 0.32,0.007C0.266,0.007 0.218,-0.005 0.174,-0.028C0.132,-0.051 0.098,-0.083 0.073,-0.126C0.048,-0.169 0.036,-0.219 0.036,-0.277C0.036,-0.335 0.048,-0.386 0.073,-0.429C0.098,-0.471 0.132,-0.504 0.174,-0.527C0.218,-0.55 0.266,-0.561 0.32,-0.561ZM0.32,-0.439C0.281,-0.439 0.247,-0.425 0.22,-0.398C0.193,-0.37 0.179,-0.33 0.179,-0.277C0.179,-0.224 0.193,-0.184 0.22,-0.157C0.247,-0.129 0.281,-0.115 0.32,-0.115C0.359,-0.115 0.393,-0.129 0.42,-0.157C0.447,-0.184 0.461,-0.224 0.461,-0.277C0.461,-0.33 0.447,-0.37 0.42,-0.398C0.393,-0.425 0.359,-0.439 0.32,-0.439Z" style="fill-rule:nonzero;"/>
                </g>
                <g transform="matrix(1,0,0,1,977.173,137.819)">
                    <g transform="matrix(288,0,0,288,0,0)">
                        <path d="M0.313,-0.561C0.384,-0.561 0.444,-0.542 0.492,-0.503C0.539,-0.464 0.569,-0.412 0.581,-0.345L0.432,-0.345C0.426,-0.374 0.412,-0.398 0.391,-0.414C0.37,-0.432 0.343,-0.44 0.31,-0.44C0.273,-0.44 0.242,-0.426 0.217,-0.399C0.192,-0.371 0.179,-0.33 0.179,-0.277C0.179,-0.224 0.192,-0.183 0.217,-0.156C0.242,-0.128 0.273,-0.114 0.31,-0.114C0.343,-0.114 0.37,-0.123 0.391,-0.14C0.412,-0.157 0.426,-0.18 0.432,-0.209L0.581,-0.209C0.569,-0.142 0.539,-0.09 0.492,-0.051C0.444,-0.012 0.384,0.007 0.313,0.007C0.259,0.007 0.211,-0.005 0.169,-0.028C0.127,-0.051 0.094,-0.083 0.071,-0.126C0.048,-0.169 0.036,-0.219 0.036,-0.277C0.036,-0.335 0.048,-0.386 0.071,-0.429C0.094,-0.471 0.127,-0.504 0.169,-0.527C0.211,-0.55 0.259,-0.561 0.313,-0.561Z" style="fill-rule:nonzero;"/>
                    </g>
                    <g transform="matrix(288,0,0,288,177.696,0)">
                        <path d="M0.281,-0.561C0.328,-0.561 0.368,-0.55 0.401,-0.528C0.434,-0.506 0.458,-0.476 0.472,-0.439L0.472,-0.554L0.612,-0.554L0.612,0L0.472,0L0.472,-0.116C0.458,-0.079 0.434,-0.049 0.401,-0.027C0.368,-0.004 0.328,0.007 0.281,0.007C0.234,0.007 0.192,-0.004 0.155,-0.027C0.118,-0.05 0.089,-0.083 0.068,-0.126C0.047,-0.169 0.036,-0.219 0.036,-0.277C0.036,-0.335 0.047,-0.386 0.068,-0.429C0.089,-0.471 0.118,-0.504 0.155,-0.527C0.192,-0.55 0.234,-0.561 0.281,-0.561ZM0.325,-0.438C0.281,-0.438 0.246,-0.424 0.219,-0.395C0.192,-0.366 0.179,-0.327 0.179,-0.277C0.179,-0.227 0.192,-0.188 0.219,-0.16C0.246,-0.131 0.281,-0.117 0.325,-0.117C0.368,-0.117 0.403,-0.132 0.431,-0.161C0.458,-0.19 0.472,-0.228 0.472,-0.277C0.472,-0.326 0.458,-0.366 0.431,-0.395C0.403,-0.424 0.368,-0.438 0.325,-0.438Z" style="fill-rule:nonzero;"/>
                    </g>
                    <g transform="matrix(288,0,0,288,372.384,0)">
                        <path d="M0.36,-0.121L0.36,0L0.286,0C0.224,0 0.177,-0.015 0.143,-0.045C0.111,-0.075 0.094,-0.125 0.094,-0.195L0.094,-0.435L0.017,-0.435L0.017,-0.554L0.094,-0.554L0.094,-0.691L0.235,-0.691L0.235,-0.554L0.359,-0.554L0.359,-0.435L0.235,-0.435L0.235,-0.193C0.235,-0.166 0.24,-0.148 0.251,-0.137C0.262,-0.126 0.28,-0.121 0.305,-0.121L0.36,-0.121Z" style="fill-rule:nonzero;"/>
                    </g>
                    <g transform="matrix(288,0,0,288,486.72,0)">
                        <path d="M0.048,-0.713C0.048,-0.736 0.056,-0.754 0.072,-0.769C0.088,-0.783 0.109,-0.79 0.135,-0.79C0.161,-0.79 0.182,-0.783 0.198,-0.769C0.214,-0.754 0.222,-0.736 0.222,-0.713C0.222,-0.691 0.214,-0.673 0.198,-0.659C0.182,-0.644 0.161,-0.637 0.135,-0.637C0.109,-0.637 0.088,-0.644 0.072,-0.659C0.056,-0.673 0.048,-0.691 0.048,-0.713ZM0.205,-0.554L0.205,0L0.064,0L0.064,-0.554L0.205,-0.554Z" style="fill-rule:nonzero;"/>
                    </g>
                    <g transform="matrix(288,0,0,288,564.192,0)">
                        <path d="M0.32,-0.561C0.374,-0.561 0.423,-0.55 0.466,-0.527C0.508,-0.504 0.542,-0.471 0.567,-0.429C0.592,-0.386 0.604,-0.335 0.604,-0.277C0.604,-0.219 0.592,-0.169 0.567,-0.126C0.542,-0.083 0.508,-0.051 0.466,-0.028C0.423,-0.005 0.374,0.007 0.32,0.007C0.266,0.007 0.218,-0.005 0.174,-0.028C0.132,-0.051 0.098,-0.083 0.073,-0.126C0.048,-0.169 0.036,-0.219 0.036,-0.277C0.036,-0.335 0.048,-0.386 0.073,-0.429C0.098,-0.471 0.132,-0.504 0.174,-0.527C0.218,-0.55 0.266,-0.561 0.32,-0.561ZM0.32,-0.439C0.281,-0.439 0.247,-0.425 0.22,-0.398C0.193,-0.37 0.179,-0.33 0.179,-0.277C0.179,-0.224 0.193,-0.184 0.22,-0.157C0.247,-0.129 0.281,-0.115 0.32,-0.115C0.359,-0.115 0.393,-0.129 0.42,-0.157C0.447,-0.184 0.461,-0.224 0.461,-0.277C0.461,-0.33 0.447,-0.37 0.42,-0.398C0.393,-0.425 0.359,-0.439 0.32,-0.439Z" style="fill-rule:nonzero;"/>
                    </g>
                    <g transform="matrix(288,0,0,288,748.512,0)">
                        <path d="M0.394,-0.562C0.458,-0.562 0.509,-0.541 0.547,-0.499C0.585,-0.457 0.604,-0.398 0.604,-0.322L0.604,0L0.464,0L0.464,-0.306C0.464,-0.35 0.453,-0.384 0.43,-0.408C0.407,-0.433 0.376,-0.445 0.337,-0.445C0.297,-0.445 0.265,-0.432 0.241,-0.406C0.217,-0.38 0.205,-0.343 0.205,-0.294L0.205,0L0.064,0L0.064,-0.554L0.205,-0.554L0.205,-0.443C0.22,-0.48 0.244,-0.509 0.278,-0.531C0.311,-0.552 0.35,-0.562 0.394,-0.562Z" style="fill-rule:nonzero;"/>
                    </g>
                </g>
            </g>
        </g>
        <g transform="matrix(418.171,0,0,345.569,653.546,253.31)">
            <path d="M0.164,-0.113L0.427,-0.113L0.427,0L0.073,0L0.073,-0.705L0.164,-0.705L0.164,-0.113Z" style="fill-rule:nonzero;"/>
        </g>
    </g>
</svg>
